<?xml version="1.0" encoding="UTF-8"?><svg xmlns="http://www.w3.org/2000/svg" xmlns:xlink="http://www.w3.org/1999/xlink" version="1.1" id="Layer_1" x="0px" y="0px" viewBox="0 0 24 24" xml:space="preserve"><circle fill="#2D98D4" cx="11" cy="6.0000129" r="6"/><path fill="#2D98D4" d="M19.539 15.255C17.535 14.226 14.427 13 11 13s-6.535 1.226-8.539 2.255A4.5 4.5 0 0 0 0 19.268V22h22v-2.732a4.5 4.5 0 0 0-2.461-4.013z"/><path opacity="0.1" fill="#010101" d="M0 21.75h22V22H0z"/><path opacity="0.2" fill="#FFF" d="M11 .25c3.266 0 5.926 2.625 5.994 5.875 0-.042.006-.083.006-.125 0-3.309-2.691-6-6-6S5 2.691 5 6c0 .042.005.083.006.125C5.074 2.875 7.734.25 11 .25z"/><path opacity="0.1" fill="#010101" d="M11 11.75c-3.266 0-5.926-2.624-5.994-5.875C5.006 5.917 5 5.958 5 6c0 3.309 2.691 6 6 6s6-2.691 6-6c0-.042-.005-.083-.006-.125-.068 3.25-2.728 5.875-5.994 5.875z"/><path opacity="0.2" fill="#FFF" d="M19.539 15.255C17.535 14.226 14.427 13 11 13s-6.535 1.226-8.539 2.255A4.5 4.5 0 0 0 0 19.268v.25a4.5 4.5 0 0 1 2.461-4.013C4.465 14.476 7.573 13.25 11 13.25s6.535 1.226 8.539 2.255A4.5 4.5 0 0 1 22 19.518v-.25a4.5 4.5 0 0 0-2.461-4.013z"/><circle fill="#68B345" cx="18.5" cy="18.4999866" r="5.5"/><path opacity="0.1" fill="#010101" d="M18.5 23.75a5.622 5.622 0 0 1-5.263-3.654 5.5 5.5 0 0 0 10.526 0A5.622 5.622 0 0 1 18.5 23.75z"/><path opacity="0.2" fill="#FFF" d="M18.5 13.25a5.622 5.622 0 0 1 5.263 3.653 5.5 5.5 0 0 0-10.526 0A5.622 5.622 0 0 1 18.5 13.25z"/><path fill="#FFF" d="M21 18h-2v-2h-1v2h-2v1h2v2h1v-2h2z"/><linearGradient id="SVGID_1_" gradientUnits="userSpaceOnUse" x1="17.758131" y1="17.7581177" x2="21.6273174" y2="21.6273041"><stop offset="0" stop-color="#010101" stop-opacity="0.1"/><stop offset="1" stop-color="#010101" stop-opacity="0"/></linearGradient><path fill="url(#SVGID_1_)" d="M16 19l2 2v-2h-2zm3-1h2l-2-2v2zm2 0v1h-2v2h-1l2.587 2.587a5.515 5.515 0 0 0 3-3L21 18z"/><linearGradient id="SVGID_2_" gradientUnits="userSpaceOnUse" x1="2.7836747" y1="9.423378" x2="24.1553802" y2="19.3891678"><stop offset="0" stop-color="#FFF" stop-opacity="0.2"/><stop offset="1" stop-color="#FFF" stop-opacity="0"/></linearGradient><path fill="url(#SVGID_2_)" d="M11 12c3.309 0 6-2.691 6-6s-2.691-6-6-6-6 2.691-6 6 2.691 6 6 6zm7.5 1c-.996 0-1.928.269-2.734.732C14.32 13.302 12.7 13 11 13c-3.427 0-6.535 1.226-8.539 2.255A4.5 4.5 0 0 0 0 19.268V22h14.257a5.5 5.5 0 1 0 4.243-9z"/><metadata><rdf:RDF xmlns:rdf="http://www.w3.org/1999/02/22-rdf-syntax-ns#" xmlns:rdfs="http://www.w3.org/2000/01/rdf-schema#" xmlns:dc="http://purl.org/dc/elements/1.1/"><rdf:Description about="https://iconscout.com/legal#licenses" dc:title="action,people,user,add" dc:description="action,people,user,add" dc:publisher="Iconscout" dc:date="2017-10-09" dc:format="image/svg+xml" dc:language="en"><dc:creator><rdf:Bag><rdf:li>Those Icons</rdf:li></rdf:Bag></dc:creator></rdf:Description></rdf:RDF></metadata></svg>